Coordinates
version=1
nRows=18
nColumns=32
inDegrees=yes

Units are S.I. units (second, meters, Newtons, ...)
If the header above contains a line with 'inDegrees', this indicates whether rotational values are in degrees (yes) or radians (no).

endheader
time	pelvis_tilt	pelvis_list	pelvis_rotation	pelvis_tx	pelvis_ty	pelvis_tz	hip_flexion_r	hip_adduction_r	hip_rotation_r	knee_angle_r	ankle_angle_r	subtalar_angle_r	mtp_angle_r	hip_flexion_l	hip_adduction_l	hip_rotation_l	knee_angle_l	ankle_angle_l	subtalar_angle_l	mtp_angle_l	lumbar_extension	lumbar_bending	lumbar_rotation	arm_flex_r	arm_add_r	arm_rot_r	elbow_flex_r	arm_flex_l	arm_add_l	arm_rot_l	elbow_flex_l
      3.95000000	    -11.97879545	     -8.62724781	      1.63244076	      0.97970711	      0.86857115	     -0.20250979	     33.42696114	      6.27678864	    -12.87034095	    -27.64010927	      2.97096389	    -10.29192804	      0.00000000	     10.85088722	     -8.42693135	    -10.77981501	    -45.93614633	     -4.81163497	    -30.00007015	      0.00000000	      1.92712119	     17.78766669	      1.71850947	      0.00000000	      0.00000000	      0.00000000	      0.00000000	      0.00000000	      0.00000000	      0.00000000	      0.00000000
      3.96000000	    -14.05228430	     -8.63497281	      2.48790123	      0.98556691	      0.86622698	     -0.20343925	     35.31605694	      5.47952505	    -14.09321525	    -28.02443479	      3.43020629	    -10.05325477	      0.00000000	     15.49062835	     -7.88012164	     -8.58880727	    -49.14194109	     -5.24988557	    -30.00007015	      0.00000000	      4.17923377	     17.84153236	      0.13150612	      0.00000000	      0.00000000	      0.00000000	      0.00000000	      0.00000000	      0.00000000	      0.00000000	      0.00000000
      3.97000000	    -13.94524454	     -8.41722627	      2.29827302	      0.99280512	      0.86727767	     -0.20320430	     34.66230389	      5.40261557	    -13.87898350	    -28.04655179	      3.52586927	     -9.93215947	      0.00000000	     17.06978057	     -7.48804231	     -8.11395548	    -51.47323215	     -5.24253625	    -30.00007015	      0.00000000	      3.42360917	     17.82212116	      0.61183973	      0.00000000	      0.00000000	      0.00000000	      0.00000000	      0.00000000	      0.00000000	      0.00000000	      0.00000000
      3.98000000	    -16.01759973	     -8.87777518	      2.96289413	      0.99941677	      0.86468438	     -0.20389545	     36.31570171	      5.14364089	    -15.05607480	    -28.05671232	      4.60623564	     -8.89193672	      0.00000000	     21.81593316	     -7.46252465	     -6.55491884	    -54.64029148	     -4.15500575	    -27.77323537	      0.00000000	      5.82881850	     18.31234719	     -0.54907949	      0.00000000	      0.00000000	      0.00000000	      0.00000000	      0.00000000	      0.00000000	      0.00000000	      0.00000000
      3.99000000	    -15.67992987	     -9.24438987	      3.01784376	      1.00696662	      0.86562206	     -0.20286551	     35.32826666	      5.60928530	    -15.53215900	    -27.81618172	      5.13394265	     -8.93810412	      0.00000000	     23.66641445	     -8.03432527	     -6.40020906	    -57.34514931	     -4.07523759	    -27.05978770	      0.00000000	      5.07176780	     18.78568805	     -0.27799795	      0.00000000	      0.00000000	      0.00000000	      0.00000000	      0.00000000	      0.00000000	      0.00000000	      0.00000000
      4.00000000	    -15.81480954	     -9.91227295	      2.95754067	      1.01542596	      0.86597218	     -0.20185340	     34.56857172	      6.51512492	    -15.50794177	    -27.17940521	      5.56063788	     -8.68828039	      0.00000000	     26.02526741	     -9.02837998	     -6.59543353	    -59.87886839	     -3.68483143	    -26.59477257	      0.00000000	      4.99647280	     19.52731447	     -0.24516712	      0.00000000	      0.00000000	      0.00000000	      0.00000000	      0.00000000	      0.00000000	      0.00000000	      0.00000000
      4.01000000	    -15.76001515	    -10.29018400	      2.89674709	      1.02394977	      0.86681310	     -0.20083587	     33.63173882	      7.10006921	    -15.60431204	    -26.61356943	      5.87802708	     -8.34295686	      0.00000000	     27.92702484	     -9.73838255	     -6.92320178	    -61.95844968	     -2.77661802	    -26.56012444	      0.00000000	      4.72906062	     19.92587174	     -0.09533248	      0.00000000	      0.00000000	      0.00000000	      0.00000000	      0.00000000	      0.00000000	      0.00000000	      0.00000000
      4.02000000	    -15.51684986	    -10.93483700	      2.61168419	      1.03247421	      0.86687357	     -0.19958741	     32.58400308	      7.99507951	    -15.69215747	    -26.22804071	      6.46083999	     -8.07714611	      0.00000000	     30.21435292	    -10.86150526	     -7.14415793	    -64.44487027	     -2.67370969	    -27.04658756	      0.00000000	      4.16319691	     20.64697578	      0.40052032	      0.00000000	      0.00000000	      0.00000000	      0.00000000	      0.00000000	      0.00000000	      0.00000000	      0.00000000
      4.03000000	    -15.28351624	    -11.46265958	      2.28161982	      1.04113727	      0.86742354	     -0.19778465	     31.44701185	      8.94312865	    -15.52914175	    -25.62123818	      7.01158534	     -7.98224850	      0.00000000	     32.26733221	    -11.92952343	     -7.53235878	    -66.78307639	     -2.11571049	    -27.86191297	      0.00000000	      3.60075097	     21.13197970	      0.86390402	      0.00000000	      0.00000000	      0.00000000	      0.00000000	      0.00000000	      0.00000000	      0.00000000	      0.00000000
      4.04000000	    -15.07485934	    -11.85280062	      1.92905873	      1.04984860	      0.86836309	     -0.19576952	     30.25552206	      9.72294295	    -15.48796097	    -24.90545460	      7.24367024	     -7.52499621	      0.00000000	     34.24501969	    -12.94245134	     -8.08533899	    -68.45695939	     -1.83611105	    -28.91592404	      0.00000000	      3.02624020	     21.36525210	      1.48654851	      0.00000000	      0.00000000	      0.00000000	      0.00000000	      0.00000000	      0.00000000	      0.00000000	      0.00000000
      4.05000000	    -14.85781671	    -12.09219297	      1.62861458	      1.05844270	      0.86919718	     -0.19404840	     29.07255064	     10.30623978	    -15.24612014	    -24.28835996	      7.45727657	     -7.05123086	      0.00000000	     36.25765462	    -13.66200350	     -8.42667506	    -70.28421100	     -1.38641257	    -29.64137783	      0.00000000	      2.44342630	     21.47243139	      2.13414087	      0.00000000	      0.00000000	      0.00000000	      0.00000000	      0.00000000	      0.00000000	      0.00000000	      0.00000000
      4.06000000	    -14.65928908	    -11.91317750	      1.53276196	      1.06672271	      0.87032837	     -0.19290283	     27.93898373	     10.31644242	    -14.95791847	    -23.75501507	      7.55569456	     -6.82423554	      0.00000000	     38.19979485	    -13.64897845	     -8.63147290	    -71.51707551	     -1.22692239	    -29.85872155	      0.00000000	      1.89375288	     21.05715283	      2.49895740	      0.00000000	      0.00000000	      0.00000000	      0.00000000	      0.00000000	      0.00000000	      0.00000000	      0.00000000
      4.07000000	    -14.33599664	    -12.22631359	      1.01206267	      1.07601212	      0.87098206	     -0.19091851	     26.64302087	     10.98138080	    -14.91576713	    -23.28616515	      7.78524324	     -6.29835738	      0.00000000	     39.99309592	    -14.53852796	     -8.92667656	    -72.85651008	     -0.81593181	    -30.00007015	      0.00000000	      1.25691090	     21.18433640	      3.63258265	      0.00000000	      0.00000000	      0.00000000	      0.00000000	      0.00000000	      0.00000000	      0.00000000	      0.00000000
      4.08000000	    -14.14857177	    -12.20007519	      0.78479615	      1.08427526	      0.87205202	     -0.18884125	     25.49235384	     11.32709136	    -14.43097376	    -22.58011373	      7.95135447	     -5.85717831	      0.00000000	     41.92406430	    -14.76100899	     -9.02069944	    -73.62648171	     -0.34870264	    -29.97755197	      0.00000000	      0.58263047	     20.80991598	      4.00724022	      0.00000000	      0.00000000	      0.00000000	      0.00000000	      0.00000000	      0.00000000	      0.00000000	      0.00000000
      4.09000000	    -13.86828491	    -12.64413097	      0.49970564	      1.09305784	      0.87290086	     -0.18644332	     24.19457060	     12.22664281	    -13.93857225	    -21.81029702	      8.16908077	     -4.98265284	      0.00000000	     43.83817370	    -15.66439954	     -8.97360418	    -74.35831602	      0.38051415	    -29.43798179	      0.00000000	     -0.05043687	     20.95823565	      4.64113836	      0.00000000	      0.00000000	      0.00000000	      0.00000000	      0.00000000	      0.00000000	      0.00000000	      0.00000000
      4.10000000	    -13.67236824	    -12.45312594	      0.36858364	      1.10168124	      0.87349259	     -0.18490805	     23.24994532	     12.16361012	    -14.06025628	    -21.64558461	      8.19930671	     -4.91521595	      0.00000000	     45.55497823	    -15.69049725	     -9.20351212	    -74.45186055	      0.41484118	    -29.35504379	      0.00000000	     -0.56436394	     20.38442001	      4.79949504	      0.00000000	      0.00000000	      0.00000000	      0.00000000	      0.00000000	      0.00000000	      0.00000000	      0.00000000
      4.11000000	    -13.47436202	    -12.27654904	      0.30851639	      1.10996768	      0.87408597	     -0.18398689	     22.29644918	     12.17724621	    -13.62848605	    -21.38658618	      8.42978167	     -4.71705931	      0.00000000	     47.23536918	    -15.36398512	     -8.95710561	    -74.20205045	      0.62327680	    -29.16722989	      0.00000000	     -1.13273136	     19.90507332	      5.37802909	      0.00000000	      0.00000000	      0.00000000	      0.00000000	      0.00000000	      0.00000000	      0.00000000	      0.00000000
      4.12000000	    -13.02627394	    -12.51137671	     -0.50023087	      1.11895725	      0.87463793	     -0.18097503	     21.04796863	     12.90496190	    -12.76908205	    -21.21904800	      9.52335024	     -3.96824915	      0.00000000	     48.45948108	    -16.54724799	     -9.40330259	    -73.91738354	      1.31577737	    -27.89728223	      0.00000000	     -2.16661330	     19.77177205	      6.59991735	      0.00000000	      0.00000000	      0.00000000	      0.00000000	      0.00000000	      0.00000000	      0.00000000	      0.00000000
